<svg xmlns="http://www.w3.org/2000/svg" xml:space="preserve" viewBox="0 0 91 61"><path fill="#FFF" stroke="#D1D3D4" stroke-dasharray="1" stroke-miterlimit="10" stroke-width=".3" d="M39.4 22.1h12.1v16.8H39.4z"/><path fill="none" stroke="#D1D3D4" stroke-miterlimit="10" stroke-width=".5" d="M44 24.6h5.7m-8.8 0 .5.6 1.5-1.5m1.1 4.5h5.7m-8.8 0 .5.6 1.5-1.5m1.1 4.5h5.7m-8.8 0 .5.5 1.5-1.4m1.1 4.5h5.7m-8.8 0 .5.5 1.5-1.5"/><path d="m45.5 20.1-.5-9.8c0-.3.2-.5.5-.5s.5.2.5.5l-.5 9.8zm7.3 3.1 6.6-7.3c.2-.2.5-.2.7 0 .2.1.2.5 0 .7l-7.3 6.6zm3.1 7.3 9.8-.5c.2 0 .5.2.5.5s-.2.5-.5.5l-9.8-.5zm-3.1 7.3 7.3 6.6c.2.2.2.5 0 .7-.1.2-.5.2-.7 0l-6.6-7.3zm-7.3 3.1.5 9.8c0 .2-.2.5-.5.5a.5.5 0 0 1-.5-.5l.5-9.8zm-7.3-3.1-6.6 7.3c-.2.2-.5.2-.7 0a.5.5 0 0 1 0-.7l7.3-6.6zm-3.1-7.3-9.8.5a.5.5 0 0 1-.5-.5c0-.3.2-.5.5-.5l9.8.5zm3.1-7.3-7.3-6.6a.5.5 0 0 1 0-.7c.1-.2.5-.2.7 0l6.6 7.3z"/></svg>