<svg id="Layer_1" data-name="Layer 1" xmlns="http://www.w3.org/2000/svg" viewBox="0 0 1382.38 1373.36"><defs><style>.cls-1{fill:#fdd70a;}.cls-2{fill:#fff;}</style></defs><title>gdpr_padlock</title><polygon class="cls-1" points="691.19 0 719.66 57.69 783.33 66.94 737.26 111.85 748.13 175.26 691.19 145.32 634.24 175.26 645.12 111.85 599.05 66.94 662.72 57.69 691.19 0"/><polygon class="cls-1" points="983.64 79.04 1012.12 136.74 1075.78 145.99 1029.71 190.89 1040.59 254.3 983.64 224.37 926.7 254.3 937.57 190.89 891.5 145.99 955.17 136.74 983.64 79.04"/><polygon class="cls-1" points="1203.94 287.69 1232.41 345.39 1296.08 354.64 1250.01 399.54 1260.88 462.95 1203.94 433.02 1146.99 462.95 1157.87 399.54 1111.8 354.64 1175.46 345.39 1203.94 287.69"/><polygon class="cls-1" points="1290.24 599.05 1318.71 656.74 1382.38 665.99 1336.31 710.9 1347.18 774.31 1290.24 744.37 1233.29 774.31 1244.17 710.9 1198.1 665.99 1261.76 656.74 1290.24 599.05"/><polygon class="cls-1" points="1192.29 884.25 1220.77 941.94 1284.43 951.19 1238.36 996.1 1249.24 1059.51 1192.29 1029.57 1135.35 1059.51 1146.22 996.1 1100.15 951.19 1163.82 941.94 1192.29 884.25"/><polygon class="cls-1" points="995.29 1092.9 1023.76 1150.59 1087.43 1159.84 1041.36 1204.75 1052.23 1268.16 995.29 1238.22 938.34 1268.16 949.22 1204.75 903.15 1159.84 966.82 1150.59 995.29 1092.9"/><polygon class="cls-1" points="691.19 1198.1 719.66 1255.79 783.33 1265.04 737.26 1309.95 748.13 1373.36 691.19 1343.42 634.24 1373.36 645.12 1309.95 599.05 1265.04 662.72 1255.79 691.19 1198.1"/><polygon class="cls-1" points="387.09 1092.9 415.56 1150.59 479.23 1159.84 433.16 1204.75 444.03 1268.16 387.09 1238.22 330.14 1268.16 341.02 1204.75 294.95 1159.84 358.62 1150.59 387.09 1092.9"/><polygon class="cls-1" points="190.08 884.25 218.56 941.94 282.22 951.19 236.15 996.1 247.03 1059.51 190.08 1029.57 133.14 1059.51 144.01 996.1 97.94 951.19 161.61 941.94 190.08 884.25"/><polygon class="cls-1" points="92.14 599.05 120.61 656.74 184.28 665.99 138.21 710.9 149.09 774.31 92.14 744.37 35.19 774.31 46.07 710.9 0 665.99 63.67 656.74 92.14 599.05"/><polygon class="cls-1" points="178.44 287.69 206.91 345.39 270.58 354.64 224.51 399.54 235.38 462.95 178.44 433.02 121.49 462.95 132.37 399.54 86.3 354.64 149.97 345.39 178.44 287.69"/><polygon class="cls-1" points="398.73 79.04 427.21 136.74 490.87 145.99 444.8 190.89 455.68 254.3 398.73 224.37 341.79 254.3 352.66 190.89 306.59 145.99 370.26 136.74 398.73 79.04"/><path class="cls-2" d="M914.56,730.1V650.94h0a153.13,153.13,0,0,0-306.25,0h0V730.1H579.1v281.53H942.92V730.1ZM864,761.66c-13.41,20.38-27.31,40.47-40,61.26a723.7,723.7,0,0,0-55.55,111.23c-5.91,14.87-11.1,30-16.55,45.06-1.78,4.9-6,6.44-10.34,7.36a37.86,37.86,0,0,1-20.72-1.46,15.32,15.32,0,0,1-9.05-7.94c-8.95-17.61-17.86-35.25-27.21-52.64a185.29,185.29,0,0,0-26.06-37c-3.86-4.26-3.22-8.21,2-10.76a37.08,37.08,0,0,1,27.94-2c2.63.79,5.06,3.06,7,5.2,11.8,13.16,21.23,28,29.86,43.37,1,1.8,2.08,3.58,3.15,5.36.08.14.34.16,1,.45,1.74-4.09,3.44-8.06,5.12-12a821.74,821.74,0,0,1,78.83-143.74c3.51-5.14,7.32-10.09,10.64-15.35a16.53,16.53,0,0,1,12-7.76c7.6-1.21,15.16-1.1,22.54,1.38a20.44,20.44,0,0,1,3.51,1.57C866.1,755.47,866.55,757.82,864,761.66Zm6.32-110.72V730.1H652.52V650.94h0a108.92,108.92,0,0,1,217.83,0Z" transform="translate(-69.62 -74.13)"/></svg>