<svg xmlns="http://www.w3.org/2000/svg" viewBox="0 0 1521.61 1521.61" xml:space="preserve"><circle fill="#11378F" cx="760.8" cy="760.8" r="727.33"/><path fill="#FDD70A" d="m760.8 74.13 28.48 57.69 63.66 9.25-46.07 44.91 10.88 63.41-56.95-29.94-56.94 29.94 10.87-63.41-46.07-44.91 63.67-9.25zM1053.26 153.17l28.47 57.69 63.67 9.25-46.07 44.91 10.88 63.41-56.95-29.94-56.95 29.94 10.88-63.41-46.07-44.91 63.67-9.25zM1273.55 361.82l28.48 57.69 63.66 9.25-46.07 44.91 10.88 63.41-56.95-29.94-56.94 29.94 10.87-63.41-46.07-44.91 63.67-9.25zM1359.85 673.17l28.48 57.7 63.66 9.25-46.07 44.91 10.88 63.4-56.95-29.93-56.94 29.93 10.87-63.4-46.07-44.91 63.67-9.25zM1261.91 958.37l28.47 57.7 63.67 9.25-46.07 44.9 10.88 63.41-56.95-29.93-56.95 29.93 10.88-63.41-46.07-44.9 63.67-9.25zM1064.9 1167.02l28.48 57.7 63.66 9.25-46.07 44.91 10.88 63.4-56.95-29.93-56.94 29.93 10.87-63.4-46.07-44.91 63.67-9.25zM760.8 1272.22l28.48 57.69 63.66 9.26-46.07 44.9 10.88 63.41-56.95-29.94-56.94 29.94 10.87-63.41-46.07-44.9 63.67-9.26zM456.71 1167.02l28.47 57.7 63.67 9.25-46.07 44.91 10.87 63.4-56.94-29.93-56.95 29.93 10.88-63.4-46.07-44.91 63.66-9.25zM259.7 958.37l28.47 57.7 63.67 9.25-46.07 44.9 10.88 63.41-56.95-29.93-56.95 29.93 10.88-63.41-46.07-44.9 63.67-9.25zM161.76 673.17l28.47 57.7 63.67 9.25-46.07 44.91 10.87 63.4-56.94-29.93-56.95 29.93 10.88-63.4-46.07-44.91 63.66-9.25zM248.06 361.82l28.47 57.69 63.67 9.25-46.07 44.91L305 537.08l-56.94-29.94-56.95 29.94 10.88-63.41-46.07-44.91 63.66-9.25zM468.35 153.17l28.47 57.69 63.67 9.25-46.07 44.91 10.88 63.41-56.95-29.94-56.95 29.94 10.88-63.41-46.07-44.91 63.67-9.25z"/><path fill="#FFF" d="M914.56 730.1v-79.15c0-84.57-68.56-153.12-153.12-153.12s-153.12 68.56-153.12 153.12v79.15H579.1v281.54h363.82V730.1h-28.36zm-50.53 31.56c-13.41 20.38-27.3 40.47-40.05 61.26a723.2 723.2 0 0 0-55.54 111.23c-5.91 14.86-11.11 30.01-16.56 45.05-1.78 4.9-5.97 6.44-10.34 7.36a37.96 37.96 0 0 1-20.72-1.47 15.3 15.3 0 0 1-9.05-7.94c-8.95-17.61-17.86-35.25-27.21-52.64a186 186 0 0 0-26.05-37c-3.87-4.25-3.22-8.2 1.95-10.75 8.99-4.43 18.48-4.9 27.94-2.02 2.62.8 5.06 3.06 6.98 5.2 11.8 13.17 21.23 28.01 29.86 43.37a221.6 221.6 0 0 0 3.15 5.37c.08.13.34.16 1.04.45l5.11-12.04c21.39-50.6 47.86-98.4 78.83-143.74 3.51-5.14 7.32-10.09 10.64-15.34 2.88-4.55 6.93-6.96 12.02-7.77 7.6-1.2 15.16-1.1 22.54 1.38 1.21.41 2.4.94 3.51 1.56 4.02 2.29 4.47 4.64 1.95 8.48zm6.32-110.72v79.15H652.52v-79.15c0-60.15 48.76-108.92 108.92-108.92 60.15.01 108.91 48.77 108.91 108.92z"/></svg>