<?xml version="1.0" encoding="utf-8"?>
<!-- Generator: Adobe Illustrator 26.0.1, SVG Export Plug-In . SVG Version: 6.00 Build 0)  -->
<svg version="1.1" id="Layer_1" xmlns="http://www.w3.org/2000/svg" xmlns:xlink="http://www.w3.org/1999/xlink" x="0px" y="0px"
	 viewBox="0 0 1521.61 1521.61" enable-background="new 0 0 1521.61 1521.61" xml:space="preserve">
<circle fill="#11378F" cx="760.8" cy="760.8" r="727.33"/>
<polygon fill="#FDD70A" points="760.8,74.13 789.28,131.82 852.94,141.07 806.87,185.98 817.75,249.39 760.8,219.45 703.86,249.39 
	714.73,185.98 668.66,141.07 732.33,131.82 "/>
<polygon fill="#FDD70A" points="1053.26,153.17 1081.73,210.86 1145.4,220.11 1099.33,265.02 1110.21,328.43 1053.26,298.49 
	996.31,328.43 1007.19,265.02 961.12,220.11 1024.79,210.86 "/>
<polygon fill="#FDD70A" points="1273.55,361.82 1302.03,419.51 1365.69,428.76 1319.62,473.67 1330.5,537.08 1273.55,507.14 
	1216.61,537.08 1227.48,473.67 1181.41,428.76 1245.08,419.51 "/>
<polygon fill="#FDD70A" points="1359.85,673.17 1388.33,730.87 1451.99,740.12 1405.92,785.03 1416.8,848.43 1359.85,818.5 
	1302.91,848.43 1313.78,785.03 1267.71,740.12 1331.38,730.87 "/>
<polygon fill="#FDD70A" points="1261.91,958.37 1290.38,1016.07 1354.05,1025.32 1307.98,1070.22 1318.86,1133.63 1261.91,1103.7 
	1204.96,1133.63 1215.84,1070.22 1169.77,1025.32 1233.44,1016.07 "/>
<polygon fill="#FDD70A" points="1064.9,1167.02 1093.38,1224.72 1157.04,1233.97 1110.97,1278.88 1121.85,1342.28 1064.9,1312.35 
	1007.96,1342.28 1018.83,1278.88 972.76,1233.97 1036.43,1224.72 "/>
<polygon fill="#FDD70A" points="760.8,1272.22 789.28,1329.91 852.94,1339.17 806.87,1384.07 817.75,1447.48 760.8,1417.54 
	703.86,1447.48 714.73,1384.07 668.66,1339.17 732.33,1329.91 "/>
<polygon fill="#FDD70A" points="456.71,1167.02 485.18,1224.72 548.85,1233.97 502.78,1278.88 513.65,1342.28 456.71,1312.35 
	399.76,1342.28 410.64,1278.88 364.57,1233.97 428.23,1224.72 "/>
<polygon fill="#FDD70A" points="259.7,958.37 288.17,1016.07 351.84,1025.32 305.77,1070.22 316.65,1133.63 259.7,1103.7 
	202.75,1133.63 213.63,1070.22 167.56,1025.32 231.23,1016.07 "/>
<polygon fill="#FDD70A" points="161.76,673.17 190.23,730.87 253.9,740.12 207.83,785.03 218.7,848.43 161.76,818.5 104.81,848.43 
	115.69,785.03 69.62,740.12 133.28,730.87 "/>
<polygon fill="#FDD70A" points="248.06,361.82 276.53,419.51 340.2,428.76 294.13,473.67 305,537.08 248.06,507.14 191.11,537.08 
	201.99,473.67 155.92,428.76 219.58,419.51 "/>
<polygon fill="#FDD70A" points="468.35,153.17 496.82,210.86 560.49,220.11 514.42,265.02 525.3,328.43 468.35,298.49 411.4,328.43 
	422.28,265.02 376.21,220.11 439.88,210.86 "/>
<path fill="#FFFFFF" d="M914.56,730.1v-79.15v0c0-84.57-68.56-153.12-153.12-153.12s-153.12,68.56-153.12,153.12v0v79.15H579.1
	v281.54h363.82V730.1H914.56z M864.03,761.66c-13.41,20.38-27.3,40.47-40.05,61.26c-21.73,35.43-40.19,72.6-55.54,111.23
	c-5.91,14.86-11.11,30.01-16.56,45.05c-1.78,4.9-5.97,6.44-10.34,7.36c-6.98,1.47-13.92,0.92-20.72-1.47
	c-4.14-1.46-7.03-3.96-9.05-7.94c-8.95-17.61-17.86-35.25-27.21-52.64c-7.18-13.34-15.83-25.74-26.05-37
	c-3.87-4.25-3.22-8.2,1.95-10.75c8.99-4.43,18.48-4.9,27.94-2.02c2.62,0.8,5.06,3.06,6.98,5.2c11.8,13.17,21.23,28.01,29.86,43.37
	c1.02,1.81,2.08,3.59,3.15,5.37c0.08,0.13,0.34,0.16,1.04,0.45c1.74-4.09,3.43-8.07,5.11-12.04c21.39-50.6,47.86-98.4,78.83-143.74
	c3.51-5.14,7.32-10.09,10.64-15.34c2.88-4.55,6.93-6.96,12.02-7.77c7.6-1.2,15.16-1.1,22.54,1.38c1.21,0.41,2.4,0.94,3.51,1.56
	C866.1,755.47,866.55,757.82,864.03,761.66z M870.35,650.94v79.15H652.52v-79.15v0c0-60.15,48.76-108.92,108.92-108.92
	C821.59,542.03,870.35,590.79,870.35,650.94L870.35,650.94z"/>
</svg>
