<svg xmlns="http://www.w3.org/2000/svg" xml:space="preserve" viewBox="0 0 91 61"><path fill="#FFF" stroke="#000" stroke-miterlimit="10" stroke-width=".5" d="M74.5 39.5h12.1v16.8H74.5z"/><path fill="#FFF" d="M39.4 22.1h12.1v16.8H39.4z"/><g fill="none" stroke="#000" stroke-miterlimit="10" stroke-width=".3"><path d="M39.4 22.6v-.5h.5"/><path stroke-dasharray="1.0117,1.0117" d="M41 22.1h9.6"/><path d="M51.1 22.1h.5v.5"/><path stroke-dasharray="1.0538,1.0538" d="M51.6 23.6v14.3"/><path d="M51.6 38.4v.5h-.5"/><path stroke-dasharray="1.0117,1.0117" d="M50 38.9h-9.6"/><path d="M39.9 38.9h-.5v-.5"/><path stroke-dasharray="1.0538,1.0538" d="M39.4 37.4V23.1"/></g><path fill="none" stroke="#000" stroke-miterlimit="10" stroke-width=".5" d="M79.1 42.1h5.7m-8.8 0 .5.5 1.5-1.5m1.1 4.5h5.7m-8.8 0 .5.6 1.5-1.5m1.1 4.5h5.7m-8.8 0 .5.6 1.5-1.5m1.1 4.5h5.7m-8.8 0 .5.5 1.5-1.4"/><g fill="none" stroke="#000" stroke-miterlimit="10" stroke-width=".3"><path d="m74.5 56.3-.4-.2"/><path stroke-dasharray="0.9788,0.9788" d="M73.2 55.7 40.3 39.3"/><path d="m39.9 39.1-.5-.2"/></g><g fill="none" stroke="#000" stroke-miterlimit="10" stroke-width=".3"><path d="m86.7 39.5-.5-.2"/><path stroke-dasharray="0.9788,0.9788" d="M85.3 38.9 52.5 22.5"/><path d="m52 22.3-.4-.2"/></g><path fill="none" stroke="#D1D3D4" stroke-miterlimit="10" stroke-width=".3" d="m54.1 35.9 15.4 7.4"/><path fill="#D1D3D4" d="m70.8 44-2.4.1 1-.9V42l1.4 2z"/></svg>